<svg width="138" height="67" viewBox="0 0 138 67" fill="none" xmlns="http://www.w3.org/2000/svg">
<path d="M125.98 52.3H111.94L106.78 67H102.4L116.38 27.16H121.54L135.52 67H131.14L125.98 52.3ZM124.66 48.46L118.96 32.14L113.26 48.46H124.66Z" fill="white"/>
<path d="M41.58 13.1V52.88H37.44V18.92L24 38.36H20.52L7.08 18.92V53H3V13.1H8.04L22.26 33.68L36.48 13.1H41.58ZM57.3698 53.3C53.7298 53.3 50.3898 52.4 47.3498 50.6C44.3098 48.8 41.8898 46.38 40.0898 43.34C38.2898 40.3 37.3898 36.96 37.3898 33.32C37.3898 29.68 38.2898 26.34 40.0898 23.3C41.8898 20.22 44.3098 17.78 47.3498 15.98C50.4298 14.18 53.7698 13.28 57.3698 13.28C60.9698 13.28 64.3098 14.18 67.3898 15.98C70.4698 17.78 72.9098 20.22 74.7098 23.3C76.5098 26.38 77.4098 29.72 77.4098 33.32C77.4098 36.92 76.5098 40.26 74.7098 43.34C72.9098 46.38 70.4698 48.8 67.3898 50.6C64.3498 52.4 61.0098 53.3 57.3698 53.3ZM57.3698 49.22C60.2498 49.22 62.9098 48.52 65.3498 47.12C67.7898 45.68 69.7098 43.74 71.1098 41.3C72.5498 38.86 73.2698 36.2 73.2698 33.32C73.2698 30.44 72.5498 27.78 71.1098 25.34C69.7098 22.9 67.7898 20.98 65.3498 19.58C62.9098 18.14 60.2498 17.42 57.3698 17.42C54.4898 17.42 51.8298 18.14 49.3898 19.58C46.9498 20.98 45.0098 22.9 43.5698 25.34C42.1698 27.78 41.4698 30.44 41.4698 33.32C41.4698 36.2 42.1698 38.86 43.5698 41.3C45.0098 43.74 46.9498 45.68 49.3898 47.12C51.8298 48.52 54.4898 49.22 57.3698 49.22ZM102.314 13.1V53H97.4541L77.3541 20.78V53H73.2141V13.1H77.5341L98.2341 46.22V13.1H102.314ZM102.792 13.1V53H98.7117V13.1H102.792ZM118.75 53.36C115.07 53.36 111.69 52.46 108.61 50.66C105.53 48.86 103.09 46.42 101.29 43.34C99.4898 40.26 98.5898 36.88 98.5898 33.2C98.5898 29.52 99.4898 26.14 101.29 23.06C103.09 19.94 105.53 17.48 108.61 15.68C111.73 13.84 115.11 12.92 118.75 12.92C121.71 12.92 124.53 13.54 127.21 14.78C129.89 15.98 132.17 17.72 134.05 20L130.93 22.64C129.41 20.88 127.57 19.52 125.41 18.56C123.29 17.56 121.07 17.06 118.75 17.06C115.87 17.06 113.19 17.8 110.71 19.28C108.27 20.72 106.33 22.68 104.89 25.16C103.45 27.64 102.73 30.32 102.73 33.2C102.73 36.08 103.45 38.76 104.89 41.24C106.33 43.68 108.27 45.62 110.71 47.06C113.19 48.5 115.87 49.22 118.75 49.22C121.07 49.22 123.29 48.74 125.41 47.78C127.57 46.78 129.41 45.4 130.93 43.64L134.05 46.28C132.17 48.52 129.89 50.26 127.21 51.5C124.53 52.74 121.71 53.36 118.75 53.36Z" fill="white"/>
</svg>
