<svg width="40" height="40" viewBox="0 0 40 40" fill="none" xmlns="http://www.w3.org/2000/svg">
<path d="M5 8.33333H8.33333V5C6.5 5 5 6.5 5 8.33333ZM5 21.6667H8.33333V18.3333H5V21.6667ZM11.6667 35H15V31.6667H11.6667V35ZM5 15H8.33333V11.6667H5V15ZM21.6667 5H18.3333V8.33333H21.6667V5ZM31.6667 5V8.33333H35C35 6.5 33.5 5 31.6667 5ZM8.33333 35V31.6667H5C5 33.5 6.5 35 8.33333 35ZM5 28.3333H8.33333V25H5V28.3333ZM15 5H11.6667V8.33333H15V5ZM18.3333 35H21.6667V31.6667H18.3333V35ZM31.6667 21.6667H35V18.3333H31.6667V21.6667ZM31.6667 35C33.5 35 35 33.5 35 31.6667H31.6667V35ZM31.6667 15H35V11.6667H31.6667V15ZM31.6667 28.3333H35V25H31.6667V28.3333ZM25 35H28.3333V31.6667H25V35ZM25 8.33333H28.3333V5H25V8.33333ZM13.3333 28.3333H26.6667C27.5833 28.3333 28.3333 27.5833 28.3333 26.6667V13.3333C28.3333 12.4167 27.5833 11.6667 26.6667 11.6667H13.3333C12.4167 11.6667 11.6667 12.4167 11.6667 13.3333V26.6667C11.6667 27.5833 12.4167 28.3333 13.3333 28.3333ZM15 15H25V25H15V15Z" fill="white"/>
</svg>
