<svg width="1200" height="630" viewBox="0 0 1200 630" fill="none" xmlns="http://www.w3.org/2000/svg">
<g clip-path="url(#clip0_208_176)">
<rect width="1200" height="630" fill="#3B3E51"/>
<circle cx="1040" cy="248" r="150" fill="url(#paint0_linear_208_176)"/>
<circle cx="91" cy="93" r="190" fill="url(#paint1_linear_208_176)"/>
<circle cx="246" cy="574" r="75" fill="url(#paint2_linear_208_176)"/>
<g filter="url(#filter0_b_208_176)">
<rect x="25" y="25" width="1150" height="580" rx="19" fill="white" fill-opacity="0.37"/>
<rect x="25.5" y="25.5" width="1149" height="579" rx="18.5" stroke="white"/>
</g>
<path d="M196.98 562.3H182.94L177.78 577H173.4L187.38 537.16H192.54L206.52 577H202.14L196.98 562.3ZM195.66 558.46L189.96 542.14L184.26 558.46H195.66Z" fill="white"/>
<path d="M112.58 523.1V562.88H108.44V528.92L95 548.36H91.52L78.08 528.92V563H74V523.1H79.04L93.26 543.68L107.48 523.1H112.58ZM128.37 563.3C124.73 563.3 121.39 562.4 118.35 560.6C115.31 558.8 112.89 556.38 111.09 553.34C109.29 550.3 108.39 546.96 108.39 543.32C108.39 539.68 109.29 536.34 111.09 533.3C112.89 530.22 115.31 527.78 118.35 525.98C121.43 524.18 124.77 523.28 128.37 523.28C131.97 523.28 135.31 524.18 138.39 525.98C141.47 527.78 143.91 530.22 145.71 533.3C147.51 536.38 148.41 539.72 148.41 543.32C148.41 546.92 147.51 550.26 145.71 553.34C143.91 556.38 141.47 558.8 138.39 560.6C135.35 562.4 132.01 563.3 128.37 563.3ZM128.37 559.22C131.25 559.22 133.91 558.52 136.35 557.12C138.79 555.68 140.71 553.74 142.11 551.3C143.55 548.86 144.27 546.2 144.27 543.32C144.27 540.44 143.55 537.78 142.11 535.34C140.71 532.9 138.79 530.98 136.35 529.58C133.91 528.14 131.25 527.42 128.37 527.42C125.49 527.42 122.83 528.14 120.39 529.58C117.95 530.98 116.01 532.9 114.57 535.34C113.17 537.78 112.47 540.44 112.47 543.32C112.47 546.2 113.17 548.86 114.57 551.3C116.01 553.74 117.95 555.68 120.39 557.12C122.83 558.52 125.49 559.22 128.37 559.22ZM173.314 523.1V563H168.454L148.354 530.78V563H144.214V523.1H148.534L169.234 556.22V523.1H173.314ZM173.792 523.1V563H169.712V523.1H173.792ZM189.75 563.36C186.07 563.36 182.69 562.46 179.61 560.66C176.53 558.86 174.09 556.42 172.29 553.34C170.49 550.26 169.59 546.88 169.59 543.2C169.59 539.52 170.49 536.14 172.29 533.06C174.09 529.94 176.53 527.48 179.61 525.68C182.73 523.84 186.11 522.92 189.75 522.92C192.71 522.92 195.53 523.54 198.21 524.78C200.89 525.98 203.17 527.72 205.05 530L201.93 532.64C200.41 530.88 198.57 529.52 196.41 528.56C194.29 527.56 192.07 527.06 189.75 527.06C186.87 527.06 184.19 527.8 181.71 529.28C179.27 530.72 177.33 532.68 175.89 535.16C174.45 537.64 173.73 540.32 173.73 543.2C173.73 546.08 174.45 548.76 175.89 551.24C177.33 553.68 179.27 555.62 181.71 557.06C184.19 558.5 186.87 559.22 189.75 559.22C192.07 559.22 194.29 558.74 196.41 557.78C198.57 556.78 200.41 555.4 201.93 553.64L205.05 556.28C203.17 558.52 200.89 560.26 198.21 561.5C195.53 562.74 192.71 563.36 189.75 563.36Z" fill="white"/>
</g>
<defs>
<filter id="filter0_b_208_176" x="-10" y="-10" width="1220" height="650" filterUnits="userSpaceOnUse" color-interpolation-filters="sRGB">
<feFlood flood-opacity="0" result="BackgroundImageFix"/>
<feGaussianBlur in="BackgroundImage" stdDeviation="17.5"/>
<feComposite in2="SourceAlpha" operator="in" result="effect1_backgroundBlur_208_176"/>
<feBlend mode="normal" in="SourceGraphic" in2="effect1_backgroundBlur_208_176" result="shape"/>
</filter>
<linearGradient id="paint0_linear_208_176" x1="1115" y1="133" x2="946" y2="352" gradientUnits="userSpaceOnUse">
<stop stop-color="#BBC4F8"/>
<stop offset="1" stop-color="#9DC4D0"/>
</linearGradient>
<linearGradient id="paint1_linear_208_176" x1="186" y1="-52.6667" x2="-28.0667" y2="224.733" gradientUnits="userSpaceOnUse">
<stop stop-color="#C18EE9"/>
<stop offset="0.239583" stop-color="#FA79FD"/>
</linearGradient>
<linearGradient id="paint2_linear_208_176" x1="283.5" y1="516.5" x2="199" y2="626" gradientUnits="userSpaceOnUse">
<stop stop-color="#E79AD6"/>
<stop offset="1" stop-color="#F58686"/>
</linearGradient>
<clipPath id="clip0_208_176">
<rect width="1200" height="630" fill="white"/>
</clipPath>
</defs>
</svg>
