<svg width="30" height="30" viewBox="0 0 30 30" fill="none" xmlns="http://www.w3.org/2000/svg">
    <path d="M19.8804 17.5H18.8929L18.5429 17.1625C19.7679 15.7375 20.5054 13.8875 20.5054 11.875C20.5054 7.3875 16.8679 3.75 12.3804 3.75C7.89287 3.75 4.25537 7.3875 4.25537 11.875C4.25537 16.3625 7.89287 20 12.3804 20C14.3929 20 16.2429 19.2625 17.6679 18.0375L18.0054 18.3875V19.375L24.2554 25.6125L26.1179 23.75L19.8804 17.5V17.5ZM12.3804 17.5C9.26787 17.5 6.75537 14.9875 6.75537 11.875C6.75537 8.7625 9.26787 6.25 12.3804 6.25C15.4929 6.25 18.0054 8.7625 18.0054 11.875C18.0054 14.9875 15.4929 17.5 12.3804 17.5Z" fill="white" />
</svg>